<?xml version="1.0" encoding="utf-8"?>
<!-- Generator: Adobe Illustrator 22.0.0, SVG Export Plug-In . SVG Version: 6.00 Build 0)  -->
<svg version="1.1" id="Layer_1" xmlns="http://www.w3.org/2000/svg" xmlns:xlink="http://www.w3.org/1999/xlink" x="0px" y="0px"
	 viewBox="0 0 450 450" style="enable-background:new 0 0 450 450;" xml:space="preserve">
<style type="text/css">
	.st0{fill:#FF0000;}
</style>
<title>icon</title>
<g>
	<path d="M111.4,236c-0.5,2.8-1.5,5.3-3.2,7.7c-1.6,2.4-4,4.4-7.1,6c-3.1,1.6-7.3,2.4-12.5,2.4c-3,0-5.8-0.4-8.6-1.2
		c-2.8-0.8-5.2-2.1-7.4-3.8s-3.9-4-5.2-6.7c-1.3-2.7-2-6-2-9.9v-6.1h14v3.2c0,1.7,0.1,3.3,0.4,4.7c0.3,1.5,0.7,2.7,1.4,3.7
		c0.7,1,1.6,1.8,2.7,2.4c1.2,0.6,2.6,0.9,4.5,0.9c2,0,3.6-0.4,4.7-1.1c1.1-0.7,1.9-1.7,2.4-2.8c0.5-1.2,0.8-2.4,0.9-3.7
		c0.1-1.3,0.1-2.6,0.1-3.9v-47.5H112v48.2C112,230.7,111.8,233.2,111.4,236z"/>
	<path d="M123.6,215.3c0.2-3.3,1-6,2.5-8.2c1.4-2.2,3.3-3.9,5.5-5.2c2.2-1.3,4.7-2.3,7.5-2.8c2.8-0.6,5.6-0.8,8.4-0.8
		c2.6,0,5.2,0.2,7.8,0.5c2.6,0.4,5,1.1,7.2,2.1s3.9,2.5,5.3,4.4c1.4,1.9,2.1,4.3,2.1,7.4v26.5c0,2.3,0.1,4.5,0.4,6.6
		c0.3,2.1,0.7,3.7,1.4,4.7h-14.2c-0.3-0.8-0.5-1.6-0.6-2.4c-0.2-0.8-0.3-1.7-0.3-2.5c-2.2,2.3-4.9,3.9-7.9,4.8
		c-3,0.9-6.1,1.4-9.3,1.4c-2.4,0-4.7-0.3-6.8-0.9c-2.1-0.6-3.9-1.5-5.5-2.8c-1.6-1.2-2.8-2.8-3.7-4.7c-0.9-1.9-1.3-4.2-1.3-6.8
		c0-2.9,0.5-5.3,1.5-7.1c1-1.9,2.3-3.4,3.9-4.5c1.6-1.1,3.5-1.9,5.5-2.5c2.1-0.6,4.2-1,6.3-1.3s4.2-0.6,6.2-0.8
		c2-0.2,3.8-0.5,5.4-0.9c1.6-0.4,2.8-1,3.7-1.7c0.9-0.8,1.3-1.9,1.3-3.3c0-1.5-0.2-2.7-0.7-3.6c-0.5-0.9-1.2-1.6-2-2.1
		c-0.8-0.5-1.8-0.8-2.9-1c-1.1-0.2-2.2-0.2-3.5-0.2c-2.8,0-4.9,0.6-6.5,1.8c-1.6,1.2-2.5,3.2-2.8,5.9H123.6z M155.9,225.6
		c-0.6,0.5-1.3,0.9-2.2,1.2c-0.9,0.3-1.8,0.5-2.9,0.7c-1,0.2-2.1,0.4-3.2,0.5c-1.1,0.1-2.2,0.3-3.3,0.5c-1.1,0.2-2.1,0.5-3.1,0.8
		s-1.9,0.8-2.7,1.3c-0.8,0.6-1.4,1.3-1.8,2.1c-0.5,0.9-0.7,1.9-0.7,3.3c0,1.2,0.2,2.3,0.7,3.2c0.5,0.9,1.1,1.5,1.9,2
		c0.8,0.5,1.7,0.8,2.8,1c1.1,0.2,2.1,0.3,3.3,0.3c2.8,0,4.9-0.5,6.4-1.4c1.5-0.9,2.6-2,3.3-3.3s1.2-2.6,1.3-3.9
		c0.2-1.3,0.2-2.4,0.2-3.2V225.6z"/>
	<path d="M194.1,199.6v9.5h0.2c0.7-1.6,1.5-3,2.7-4.4c1.1-1.3,2.4-2.5,3.8-3.4c1.4-1,3-1.7,4.6-2.2c1.6-0.5,3.4-0.8,5.1-0.8
		c0.9,0,1.9,0.2,3.1,0.5v13c-0.7-0.1-1.4-0.2-2.4-0.3c-0.9-0.1-1.8-0.2-2.7-0.2c-2.6,0-4.7,0.4-6.5,1.3c-1.8,0.9-3.2,2-4.3,3.5
		c-1.1,1.5-1.9,3.2-2.3,5.2c-0.5,2-0.7,4.1-0.7,6.4v23h-14v-51H194.1z"/>
	<path d="M264.5,254.3c-0.6,2.6-1.8,5.1-3.6,7.3c-1.8,2.3-4.5,4.2-8,5.8c-3.5,1.6-8.1,2.4-14,2.4c-2.5,0-5-0.3-7.6-0.9
		c-2.6-0.6-5-1.6-7.1-2.9c-2.1-1.3-3.9-3-5.3-5.1c-1.4-2.1-2.2-4.5-2.4-7.4h13.9c0.7,2.6,1.9,4.5,3.8,5.5c1.9,1,4.1,1.5,6.6,1.5
		c3.9,0,6.8-1.2,8.6-3.6c1.8-2.4,2.7-5.4,2.6-9v-6.7h-0.2c-1.5,2.7-3.7,4.7-6.5,6c-2.8,1.3-5.7,1.9-8.8,1.9c-3.8,0-7.1-0.7-9.9-2
		c-2.8-1.3-5-3.2-6.8-5.5c-1.8-2.3-3.1-5.1-3.9-8.2s-1.2-6.4-1.2-9.9c0-3.3,0.5-6.5,1.4-9.5c1-3.1,2.4-5.8,4.2-8.1
		c1.8-2.3,4.1-4.2,6.9-5.6c2.7-1.4,5.9-2.1,9.4-2.1c3.3,0,6.3,0.6,8.8,1.9c2.5,1.2,4.6,3.3,6.4,6.3h0.2v-6.8h13.3v47.7
		C265.3,249.4,265,251.7,264.5,254.3z M245.3,237.4c1.5-0.8,2.8-1.8,3.7-3.2c1-1.3,1.7-2.8,2.2-4.5c0.5-1.7,0.7-3.4,0.7-5.3
		c0-2.1-0.2-4.1-0.6-6c-0.4-1.9-1.1-3.5-2-5c-0.9-1.4-2.1-2.6-3.6-3.4c-1.5-0.9-3.4-1.3-5.7-1.3c-2,0-3.7,0.4-5.1,1.2
		c-1.4,0.8-2.6,1.9-3.5,3.2c-1,1.3-1.6,2.9-2.1,4.6c-0.4,1.7-0.6,3.6-0.6,5.5c0,1.8,0.2,3.7,0.5,5.5c0.4,1.8,1,3.4,1.9,4.9
		c0.9,1.5,2.1,2.6,3.5,3.6s3.3,1.4,5.4,1.4C242,238.6,243.8,238.2,245.3,237.4z"/>
	<path d="M276.8,214.1c1.2-3.3,3-6.1,5.3-8.5c2.3-2.3,5.1-4.1,8.3-5.4c3.2-1.3,6.8-1.9,10.8-1.9c4,0,7.6,0.6,10.9,1.9
		c3.3,1.3,6,3.1,8.3,5.4c2.3,2.3,4.1,5.2,5.3,8.5c1.2,3.3,1.9,7,1.9,11.1s-0.6,7.7-1.9,11c-1.2,3.3-3,6.1-5.3,8.4
		c-2.3,2.3-5.1,4.1-8.3,5.4c-3.3,1.3-6.9,1.9-10.9,1.9c-4,0-7.6-0.6-10.8-1.9c-3.2-1.2-6-3-8.3-5.4c-2.3-2.3-4.1-5.1-5.3-8.4
		c-1.3-3.3-1.9-7-1.9-11S275.6,217.4,276.8,214.1z M289.6,231.1c0.4,1.9,1.1,3.7,2,5.2c1,1.5,2.2,2.8,3.8,3.7
		c1.6,0.9,3.5,1.4,5.9,1.4c2.4,0,4.4-0.5,6-1.4c1.6-0.9,2.9-2.1,3.8-3.7c1-1.5,1.6-3.3,2-5.2c0.4-1.9,0.6-3.9,0.6-6c0-2-0.2-4-0.6-6
		c-0.4-2-1.1-3.7-2-5.2c-1-1.5-2.2-2.7-3.8-3.7c-1.6-1-3.6-1.4-6-1.4c-2.4,0-4.3,0.5-5.9,1.4c-1.6,1-2.8,2.2-3.8,3.7
		c-1,1.5-1.6,3.2-2,5.2c-0.4,2-0.6,4-0.6,6C289,227.2,289.2,229.2,289.6,231.1z"/>
	<path d="M350.1,199.6v7.1h0.3c1.8-3,4.1-5.1,6.9-6.5c2.8-1.3,5.7-2,8.7-2c3.7,0,6.8,0.5,9.2,1.5c2.4,1,4.3,2.4,5.7,4.2
		c1.4,1.8,2.3,4,2.9,6.6c0.6,2.6,0.8,5.5,0.8,8.6v31.3h-14v-28.8c0-4.2-0.7-7.3-2-9.4s-3.6-3.1-7-3.1c-3.8,0-6.6,1.1-8.3,3.4
		c-1.7,2.3-2.6,6-2.6,11.2v26.7h-14v-51H350.1z"/>
</g>
<path class="st0" d="M225,14.7C108.8,14.7,14.7,108.8,14.7,225S108.8,435.3,225,435.3S435.3,341.2,435.3,225S341.2,14.7,225,14.7z
	 M342.5,107.5c31.4,31.4,48.7,73.1,48.7,117.5c0,34.6-10.5,67.6-30,95.3L129.7,88.9c27.7-19.5,60.7-30,95.3-30
	C269.4,58.9,311.1,76.2,342.5,107.5z M107.5,342.5C76.2,311.1,58.9,269.4,58.9,225c0-39.2,13.5-76.4,38.3-106.1l233.9,233.9
	c-29.8,24.8-66.9,38.3-106.1,38.3C180.6,391.1,138.9,373.8,107.5,342.5z"/>
</svg>
